<svg width="16" height="16" viewBox="0 0 16 16" fill="none" xmlns="http://www.w3.org/2000/svg">
<path d="M7.21162 10.8C7.21162 11.4627 6.67436 12 6.01162 12C5.34887 12 4.81162 11.4627 4.81162 10.8C4.81162 10.1373 5.34887 9.60002 6.01162 9.60002C6.67436 9.60002 7.21162 10.1373 7.21162 10.8ZM7.21162 10.8C7.52759 10.3793 8.12486 10.2943 8.5456 10.6103C8.61746 10.6643 8.68132 10.7281 8.73529 10.8M8.73529 10.8C8.73529 11.4627 9.27255 12 9.93529 12C10.598 12 11.1353 11.4627 11.1353 10.8C11.1353 10.1373 10.598 9.60002 9.93529 9.60002C9.27255 9.60002 8.73529 10.1373 8.73529 10.8ZM4 8.52511C6.53509 7.34043 9.46491 7.34043 12 8.52511M5.45455 6.39998L5.73092 4.74254C5.80236 4.31414 6.17296 4.00012 6.60728 4H9.39201C9.8266 3.99977 10.1976 4.31387 10.2691 4.74254L10.5455 6.39998" stroke="white" stroke-width="0.875" stroke-linecap="round" stroke-linejoin="round"/>
</svg>
