<svg width="24" height="24" viewBox="0 0 24 24" fill="none" xmlns="http://www.w3.org/2000/svg">
<path d="M15.3357 4.5L15.335 5.25L15.335 5.25L15.3357 4.5ZM13.3332 20.25C13.7474 20.25 14.0832 19.9142 14.0832 19.5C14.0832 19.0858 13.7474 18.75 13.3332 18.75V19.5V20.25ZM10.6665 18.75C10.2523 18.75 9.9165 19.0858 9.9165 19.5C9.9165 19.9142 10.2523 20.25 10.6665 20.25V19.5V18.75ZM12.1107 7.75C12.5249 7.75 12.8607 7.41421 12.8607 7C12.8607 6.58579 12.5249 6.25 12.1107 6.25V7V7.75ZM7.43984 13.89L7.77471 14.5611L7.77617 14.5604L7.43984 13.89ZM7.02067 14.0992L6.68579 13.4281L6.68441 13.4288L7.02067 14.0992ZM16.979 14.1L17.3144 13.4292L17.3139 13.4289L16.979 14.1ZM16.5598 13.8908L16.2216 14.5603L16.225 14.5619L16.5598 13.8908ZM16.9165 11.0592C16.9165 10.645 16.5807 10.3092 16.1665 10.3092C15.7523 10.3092 15.4165 10.645 15.4165 11.0592H16.1665H16.9165ZM15.7415 6.7C15.7415 6.28579 15.4057 5.95 14.9915 5.95C14.5773 5.95 14.2415 6.28579 14.2415 6.7H14.9915H15.7415ZM14.9915 7.80833H14.2415C14.2415 8.00725 14.3205 8.19801 14.4612 8.33866C14.6018 8.47932 14.7926 8.55833 14.9915 8.55833L14.9915 7.80833ZM16.0998 8.55833C16.5141 8.55833 16.8498 8.22255 16.8498 7.80833C16.8498 7.39412 16.5141 7.05833 16.0998 7.05833L16.0998 7.80833L16.0998 8.55833ZM15.3332 11.1667V10.4167C13.9066 10.4167 12.7498 9.25995 12.7498 7.83333H11.9998H11.2498C11.2498 10.0884 13.0781 11.9167 15.3332 11.9167V11.1667ZM11.9998 7.83333H12.7498C12.7498 6.44444 13.947 5.24872 15.335 5.25L15.3357 4.5L15.3364 3.75C13.1193 3.74795 11.2498 5.61556 11.2498 7.83333H11.9998ZM15.3357 4.5L15.335 5.25C16.7612 5.25129 17.9165 6.40743 17.9165 7.83333H18.6665H19.4165C19.4165 5.57923 17.5901 3.75204 15.3364 3.75L15.3357 4.5ZM18.6665 7.83333H17.9165C17.9165 9.26008 16.7605 10.4167 15.3332 10.4167V11.1667V11.9167C17.5892 11.9167 19.4165 10.0883 19.4165 7.83333H18.6665ZM13.3332 19.5V18.75H10.6665V19.5V20.25H13.3332V19.5ZM12.1107 7V6.25H11.9998V7V7.75H12.1107V7ZM11.9998 7V6.25C9.28479 6.25 7.08317 8.45162 7.08317 11.1667H7.83317H8.58317C8.58317 9.28005 10.1132 7.75 11.9998 7.75V7ZM7.83317 13.2533H7.08317C7.08317 13.2384 7.09184 13.2255 7.1035 13.2196L7.43984 13.89L7.77617 14.5604C8.2695 14.3128 8.58317 13.8083 8.58317 13.2533H7.83317ZM7.43984 13.89L7.10496 13.2189L6.68579 13.4281L7.02067 14.0992L7.35555 14.7703L7.77471 14.5611L7.43984 13.89ZM7.02067 14.0992L6.68441 13.4288C5.90809 13.8182 5.4165 14.6122 5.4165 15.4817H6.1665H6.9165C6.9165 15.1811 7.08658 14.9052 7.35693 14.7696L7.02067 14.0992ZM6.1665 15.4817H5.4165C5.4165 16.7492 6.44396 17.7767 7.7115 17.7767V17.0267V16.2767C7.27238 16.2767 6.9165 15.9208 6.9165 15.4817H6.1665ZM7.7115 17.0267V17.7767H16.2882V17.0267V16.2767H7.7115V17.0267ZM16.2882 17.0267V17.7767C17.5557 17.7767 18.5832 16.7492 18.5832 15.4817H17.8332H17.0832C17.0832 15.9208 16.7273 16.2767 16.2882 16.2767V17.0267ZM17.8332 15.4817H18.5832C18.5832 14.6124 18.0917 13.8178 17.3144 13.4292L16.979 14.1L16.6436 14.7708C16.913 14.9055 17.0832 15.1809 17.0832 15.4817H17.8332ZM16.979 14.1L17.3139 13.4289L16.8947 13.2197L16.5598 13.8908L16.225 14.5619L16.6441 14.7711L16.979 14.1ZM16.5598 13.8908L16.898 13.2214C16.9077 13.2263 16.9165 13.238 16.9165 13.2533H16.1665H15.4165C15.4165 13.8086 15.7303 14.3121 16.2216 14.5603L16.5598 13.8908ZM16.1665 13.2533H16.9165V11.0592H16.1665H15.4165V13.2533H16.1665ZM14.9915 6.7H14.2415V7.80833H14.9915H15.7415V6.7H14.9915ZM14.9915 7.80833L14.9915 8.55833L16.0998 8.55833L16.0998 7.80833L16.0998 7.05833L14.9915 7.05833L14.9915 7.80833ZM7.83317 11.1667H7.08317V13.2533H7.83317H8.58317V11.1667H7.83317Z" fill="#4E596C"/>
</svg>
