<svg width="24" height="24" viewBox="0 0 24 24" fill="none" xmlns="http://www.w3.org/2000/svg">
<path d="M9.24997 14.4999L4.24997 19.4999M4.25 13.5L2.25 15.5M10.25 19.5L8.25 21.5M12.6827 15.3414L11.533 11.9498L8.0873 10.9742C7.67191 10.8566 7.43052 10.4245 7.54814 10.0091C7.59497 9.84369 7.69502 9.69834 7.83281 9.59554L10.7031 7.454L10.5662 3.87542C10.5497 3.44402 10.886 3.08092 11.3174 3.06441C11.4892 3.05784 11.6584 3.10808 11.7987 3.20736L14.7224 5.2754L18.0835 4.03934C18.4887 3.89034 18.938 4.09801 19.087 4.50321C19.1463 4.66455 19.1508 4.84096 19.0998 5.00511L18.0364 8.42479L20.2506 11.2394C20.5175 11.5787 20.4589 12.0702 20.1195 12.3371C19.9844 12.4434 19.818 12.5022 19.6461 12.5044L16.0652 12.5498L14.0726 15.5254C13.8324 15.8841 13.3468 15.9802 12.9881 15.7399C12.8453 15.6443 12.7379 15.5042 12.6827 15.3414Z" stroke="#7158F5" stroke-width="1.5" stroke-linecap="round" stroke-linejoin="round"/>
</svg>
