<svg width="40" height="40" viewBox="0 0 40 40" fill="none" xmlns="http://www.w3.org/2000/svg">
<rect width="40" height="40" rx="12" fill="url(#paint0_linear_221_11540)"/>
<rect width="40" height="40" rx="12" fill="url(#paint1_linear_221_11540)"/>
<g filter="url(#filter0_d_221_11540)">
<path d="M25.5556 11.6667H14.4444C11.9898 11.6667 10 13.6565 10 16.1111V23.8889C10 26.3435 11.9898 28.3334 14.4444 28.3334H25.5556C28.0102 28.3334 30 26.3435 30 23.8889V16.1111C30 13.6565 28.0102 11.6667 25.5556 11.6667Z" fill="url(#paint2_linear_221_11540)" shape-rendering="crispEdges"/>
<path d="M25.5556 11.6667H14.4444C11.9898 11.6667 10 13.6565 10 16.1111V23.8889C10 26.3435 11.9898 28.3334 14.4444 28.3334H25.5556C28.0102 28.3334 30 26.3435 30 23.8889V16.1111C30 13.6565 28.0102 11.6667 25.5556 11.6667Z" stroke="url(#paint3_linear_221_11540)" stroke-linecap="round" stroke-linejoin="round" shape-rendering="crispEdges"/>
</g>
<path d="M14.4443 16.6484L19.1161 18.6854C19.3953 18.8071 19.6964 18.8701 20.0009 18.8706C20.3054 18.871 20.6068 18.8089 20.8863 18.688L25.5554 16.6691" stroke="url(#paint4_linear_221_11540)" stroke-width="1.25" stroke-linecap="round" stroke-linejoin="round"/>
<defs>
<filter id="filter0_d_221_11540" x="9.5" y="11.1667" width="21.5" height="18.1667" filterUnits="userSpaceOnUse" color-interpolation-filters="sRGB">
<feFlood flood-opacity="0" result="BackgroundImageFix"/>
<feColorMatrix in="SourceAlpha" type="matrix" values="0 0 0 0 0 0 0 0 0 0 0 0 0 0 0 0 0 0 127 0" result="hardAlpha"/>
<feOffset dx="0.5" dy="0.5"/>
<feComposite in2="hardAlpha" operator="out"/>
<feColorMatrix type="matrix" values="0 0 0 0 0 0 0 0 0 0 0 0 0 0 0 0 0 0 0.2 0"/>
<feBlend mode="normal" in2="BackgroundImageFix" result="effect1_dropShadow_221_11540"/>
<feBlend mode="normal" in="SourceGraphic" in2="effect1_dropShadow_221_11540" result="shape"/>
</filter>
<linearGradient id="paint0_linear_221_11540" x1="12.9508" y1="3.72575e-07" x2="27.7758" y2="30.7198" gradientUnits="userSpaceOnUse">
<stop stop-color="#E4347B"/>
<stop offset="1" stop-color="#FFAFC4"/>
</linearGradient>
<linearGradient id="paint1_linear_221_11540" x1="12.9508" y1="3.72575e-07" x2="27.7758" y2="30.7198" gradientUnits="userSpaceOnUse">
<stop stop-color="#F8B1C9"/>
<stop offset="1" stop-color="#FD458C"/>
</linearGradient>
<linearGradient id="paint2_linear_221_11540" x1="12" y1="12.0002" x2="21.203" y2="25.4982" gradientUnits="userSpaceOnUse">
<stop stop-color="white"/>
<stop offset="1" stop-color="white" stop-opacity="0.7"/>
</linearGradient>
<linearGradient id="paint3_linear_221_11540" x1="10" y1="12.0002" x2="30.5" y2="28.5002" gradientUnits="userSpaceOnUse">
<stop stop-color="#FA95B9"/>
<stop offset="1" stop-color="#FD468C"/>
</linearGradient>
<linearGradient id="paint4_linear_221_11540" x1="27.4999" y1="15" x2="13.4999" y2="15" gradientUnits="userSpaceOnUse">
<stop stop-color="#FC609A"/>
<stop offset="1" stop-color="#FA8DB4"/>
</linearGradient>
</defs>
</svg>
