<svg width="292" height="322" viewBox="0 0 292 322" fill="none" xmlns="http://www.w3.org/2000/svg">
<path d="M182.63 218.147H77V328.301H182.63V218.147Z" fill="#015B35"/>
<path d="M212.666 218.146C190.082 213.951 160.08 211.392 127.153 211.392C94.2254 211.392 64.2233 213.949 41.6397 218.146H0V237.375C0 251.724 56.9292 263.359 127.153 263.359C197.377 263.359 254.306 251.727 254.306 237.375V218.146H212.666Z" fill="#08252D"/>
<path d="M127.153 244.131C197.377 244.131 254.306 232.498 254.306 218.147C254.306 203.797 197.377 192.164 127.153 192.164C56.9283 192.164 0 203.797 0 218.147C0 232.498 56.9283 244.131 127.153 244.131Z" fill="#015B35"/>
<path d="M127.153 236.719C177.35 236.719 218.043 228.404 218.043 218.147C218.043 207.89 177.35 199.575 127.153 199.575C76.9556 199.575 36.2627 207.89 36.2627 218.147C36.2627 228.404 76.9556 236.719 127.153 236.719Z" stroke="#08252D" stroke-width="0.75" stroke-miterlimit="10" stroke-linecap="round" stroke-linejoin="round"/>
<path d="M191.846 264.905C200.488 267.08 205.7 269.893 205.7 272.964C205.7 279.86 179.441 285.448 147.052 285.448C147.052 285.448 106.756 286.126 96.8145 284.209" stroke="#08252D" stroke-width="0.75" stroke-miterlimit="10" stroke-linecap="round" stroke-linejoin="round"/>
<path d="M193.052 297.369C201.697 299.544 206.906 302.357 206.906 305.428C206.906 312.323 180.648 317.912 148.258 317.912C148.258 317.912 107.963 318.59 98.021 316.673" stroke="#08252D" stroke-width="0.75" stroke-miterlimit="10" stroke-linecap="round" stroke-linejoin="round"/>
<path d="M177.124 126.382C170.632 118.098 176.491 109.457 176.491 109.457L127.254 111.064L78.017 109.457C78.017 109.457 83.8737 118.098 77.3838 126.382C71.4144 134 54.7341 148.619 69.334 189.576C77.0011 210.75 100.031 226.126 127.254 226.126C154.476 226.126 177.507 210.75 185.174 189.576C199.772 148.619 183.091 134 177.124 126.382Z" fill="#F2652D"/>
<path d="M177.124 107.055C177.124 115.402 154.797 122.171 127.254 122.171C99.7109 122.171 77.3838 115.402 77.3838 107.055C77.3838 98.7071 99.7109 91.9385 127.254 91.9385C154.795 91.9385 177.124 98.7048 177.124 107.055Z" fill="#08252D"/>
<path d="M62.0049 133.198C53.3627 135.373 48.1509 138.186 48.1509 141.257C48.1509 148.153 74.4098 153.741 106.799 153.741C106.799 153.741 147.095 154.419 157.034 152.502" stroke="#08252D" stroke-width="0.75" stroke-miterlimit="10" stroke-linecap="round" stroke-linejoin="round"/>
<path d="M60.7969 165.661C52.1547 167.836 46.9429 170.649 46.9429 173.72C46.9429 180.615 73.2018 186.204 105.591 186.204C105.591 186.204 145.887 186.882 155.826 184.965" stroke="#08252D" stroke-width="0.75" stroke-miterlimit="10" stroke-linecap="round" stroke-linejoin="round"/>
<mask id="mask0_134_702" style="mask-type:luminance" maskUnits="userSpaceOnUse" x="118" y="0" width="174" height="231">
<path d="M292 0H118.273V230.899H292V0Z" fill="white"/>
</mask>
<g mask="url(#mask0_134_702)">
<path d="M300.199 -3.51465C300.199 -3.51465 240.374 42.3901 232.28 42.3901C224.185 42.3901 192.161 41.9655 185.826 44.5157C179.492 47.066 167.526 57.6917 167.526 57.6917C167.526 57.6917 155.209 53.8675 149.579 57.6917C143.948 61.5182 127.252 80.2194 127.252 80.2194C127.252 80.2194 135.313 90.1811 145.871 84.2313C145.871 84.2313 136.207 98.0712 134.799 101.471C133.39 104.87 130.232 122.138 130.232 122.138C130.232 122.138 142.994 121.948 150.749 120.388C150.749 120.388 159.929 89.8738 171.543 85.1979C183.156 80.5221 195.174 87.8679 197.009 95.5186C198.845 103.169 164.006 129.981 164.006 129.981L181.953 141.848C181.953 141.848 203.612 129.521 220.232 117.622C236.852 105.72 256.559 87.8678 256.559 87.8678L315.328 72.9909L300.199 -3.51465Z" fill="#F2B5B3"/>
<path d="M134.8 101.47L145.873 84.2309C145.873 84.2309 164.039 60.5794 168.338 56.9851C172.637 53.3908 183.027 44.0977 191.009 43.4619" stroke="#08252D" stroke-width="0.75" stroke-miterlimit="10" stroke-linecap="round" stroke-linejoin="round"/>
<path d="M239.632 142.342C239.632 142.342 221.553 146.462 200.747 142.342C179.939 138.222 161.52 129.983 161.52 129.983C161.52 129.983 156.061 141.929 166.978 150.582C177.893 159.234 190.976 161.712 190.976 161.712C190.976 161.712 188.126 169.534 193.585 174.477C193.585 174.477 188.81 178.597 193.243 186.013C197.678 193.429 218.144 215.265 227.014 217.736C235.883 220.208 324.57 229.272 324.57 229.272V157.174L280.227 155.527C280.227 155.527 250.209 121.745 242.363 119.272C234.518 116.8 207.229 109.458 207.229 109.458C207.229 109.458 202.113 119.272 214.733 129.159C227.352 139.046 239.632 142.342 239.632 142.342Z" fill="#F2B5B3"/>
<path d="M162.903 130.578C162.903 130.578 196.302 149.917 239.632 142.339" stroke="#08252D" stroke-width="0.75" stroke-miterlimit="10" stroke-linecap="round" stroke-linejoin="round"/>
<path d="M161.518 129.982C161.518 129.982 150.908 151.403 190.974 161.712C231.041 172.018 233.777 171.718 233.777 171.718" stroke="#08252D" stroke-width="0.75" stroke-miterlimit="10" stroke-linecap="round" stroke-linejoin="round"/>
<path d="M190.974 161.709C190.974 161.709 188.027 170.357 193.583 174.475C199.137 178.592 220.236 193.767 220.236 193.767" stroke="#08252D" stroke-width="0.75" stroke-miterlimit="10" stroke-linecap="round" stroke-linejoin="round"/>
<path d="M234.986 140.74C234.986 140.74 203.416 129.356 207.227 109.456C207.227 109.456 241.002 117.463 245.446 120.976" stroke="#08252D" stroke-width="0.75" stroke-miterlimit="10" stroke-linecap="round" stroke-linejoin="round"/>
</g>
</svg>
