<svg width="26" height="28" viewBox="0 0 26 28" fill="none" xmlns="http://www.w3.org/2000/svg">
<path d="M21.3028 7.1368C21.4353 5.26913 20.3465 3.53196 18.6175 2.853C16.8885 2.172 14.9209 2.7062 13.7628 4.16811L12.933 3.88062L12.0868 3.61556L11.2305 3.37497C12.4008 1.36254 14.5111 0.0922874 16.8233 0.0046133C19.1354 -0.0810218 21.3375 1.0302 22.6526 2.95087L25.291 3.13641L21.3028 7.1368Z" fill="#2E9CA6"/>
<path d="M23.2481 14.2567L23.2297 14.8337L23.189 15.4107L23.1237 15.9816L23.034 16.5464L22.9198 17.1112L22.7832 17.6699L22.6221 18.2224L22.4366 18.7688L22.2286 19.303L22.0023 19.8311L21.7454 20.3409L21.4722 20.8506L21.1806 21.344L20.8646 21.8191L20.5302 22.288L20.1734 22.7386L19.8043 23.1709L19.4108 23.5909L18.999 23.9926L18.5769 24.3779L18.1365 24.7388L17.6777 25.0875L17.2067 25.4117L16.7235 25.7175L16.224 25.9989L15.7183 26.264L15.2004 26.5046L14.6703 26.7207L14.1341 26.9123L13.5917 27.0856L13.0371 27.2304L12.4825 27.3568L11.9157 27.4527L11.355 27.5301L10.7841 27.5791L10.2132 27.6097H9.64638L9.07548 27.5852L8.50458 27.5363L7.93775 27.4649L7.37705 27.3691L6.81634 27.2488L6.26787 27.104L5.71939 26.9409L5.37481 27.1325L5.01188 27.3018L4.64895 27.4588L4.27379 27.5913L3.89251 27.6994L3.50511 27.783L3.1116 27.8482L2.71808 27.891L2.31845 27.9094L1.91882 27.9033L1.52531 27.8788L1.1318 27.8237L0.738281 27.7524L4.8977 23.5766C9.00819 25.7828 14.0627 25.0304 17.3658 21.7192C20.6668 18.408 21.4436 13.3127 19.2803 9.15528L21.2989 7.13062L21.5864 7.63219L21.8494 8.14193L22.0941 8.65778L22.3143 9.19198L22.51 9.73229L22.6894 10.2787L22.8383 10.8313L22.9688 11.3899L23.0707 11.9608L23.1482 12.5317L23.2073 13.1026L23.2379 13.6735L23.244 14.2506L23.2481 14.2567Z" fill="#2E9CA6"/>
<path fill-rule="evenodd" clip-rule="evenodd" d="M9.90106 22.6977C14.5906 22.6977 18.3953 18.8625 18.3953 14.1301C18.3953 13.8385 18.381 13.549 18.3524 13.2636C18.2607 12.3399 18.0221 11.4571 17.6612 10.6435L10.3048 17.9837L5.85378 13.5327C5.45415 13.1331 5.45415 12.4847 5.85378 12.0851C6.25341 11.6854 6.90179 11.6854 7.30142 12.0851L10.3068 15.0904L16.5786 8.83296C15.6121 7.59533 14.3153 6.63295 12.8229 6.0804C12.8147 6.07633 12.8086 6.07429 12.8004 6.07225C12.6862 6.03147 12.57 5.99069 12.4518 5.95195C12.4436 5.94991 12.4375 5.94787 12.4293 5.94583C9.64211 5.012 6.65916 4.50635 3.56202 4.50635C2.54867 4.50635 1.54959 4.5614 0.564784 4.66742C0.197776 5.71136 0 6.83277 0 8.00312C0 9.91767 0.532161 11.7038 1.4558 13.2248C1.42318 13.5225 1.4089 13.8243 1.4089 14.1301C1.4089 18.8625 5.21355 22.6977 9.9031 22.6977H9.90106Z" fill="#39A5AF"/>
</svg>
