<svg width="135" height="132" viewBox="0 0 135 132" fill="none" xmlns="http://www.w3.org/2000/svg">
<path d="M67.5 0C58.6358 0 49.8583 1.74594 41.6689 5.13813C33.4794 8.53032 26.0382 13.5023 19.7703 19.7703C7.11159 32.429 0 49.5979 0 67.5C0 97.335 19.3725 122.647 46.17 131.625C49.545 132.165 50.625 130.072 50.625 128.25V116.842C31.9275 120.892 27.945 107.797 27.945 107.797C24.84 99.9675 20.4525 97.875 20.4525 97.875C14.31 93.69 20.925 93.825 20.925 93.825C27.675 94.2975 31.2525 100.778 31.2525 100.778C37.125 111.037 47.0475 108 50.895 106.38C51.5025 101.993 53.2575 99.0225 55.1475 97.335C40.1625 95.6475 24.435 89.8425 24.435 64.125C24.435 56.6325 27 50.625 31.3875 45.8325C30.7125 44.145 28.35 37.125 32.0625 28.0125C32.0625 28.0125 37.7325 26.19 50.625 34.8975C55.9575 33.4125 61.7625 32.67 67.5 32.67C73.2375 32.67 79.0425 33.4125 84.375 34.8975C97.2675 26.19 102.938 28.0125 102.938 28.0125C106.65 37.125 104.288 44.145 103.613 45.8325C108 50.625 110.565 56.6325 110.565 64.125C110.565 89.91 94.77 95.58 79.7175 97.2675C82.1475 99.36 84.375 103.478 84.375 109.755V128.25C84.375 130.072 85.455 132.232 88.8975 131.625C115.695 122.58 135 97.335 135 67.5C135 58.6358 133.254 49.8583 129.862 41.6689C126.47 33.4794 121.498 26.0382 115.23 19.7703C108.962 13.5023 101.521 8.53032 93.3311 5.13813C85.1417 1.74594 76.3642 0 67.5 0Z" fill="#334155"/>
</svg>
