<svg width="956" height="296" viewBox="0 0 956 296" fill="none"
  xmlns="http://www.w3.org/2000/svg">
  <path fill-rule="evenodd" clip-rule="evenodd" d="M36.605 37.739C16.3886 37.739 0 54.1276 0 74.344V205.351C0 225.568 16.3886 241.956 36.605 241.956L122.839 241.956V124.73L78.2235 100.436L93.4333 73.0432L122.839 89.0551V37.7391H155.588V143.884L175.19 132.478L191.182 159.43L155.588 180.143V241.956L167.612 241.956C187.829 241.956 204.217 225.568 204.217 205.351V74.344C204.217 54.1276 187.829 37.739 167.612 37.739H36.605Z" fill="#8ACCD2"/>
  <path d="M353.313 227.702C350.249 228.964 346.556 230.405 342.231 232.027C337.907 233.649 333.222 234.91 328.176 235.811C323.311 236.892 318.356 237.433 313.311 237.433C306.644 237.433 300.517 236.261 294.932 233.919C289.346 231.576 284.841 227.883 281.417 222.837C278.174 217.612 276.552 210.855 276.552 202.566V121.211H257.903V93.3717H276.552V47.4236H312.77V93.3717H342.501V121.211H312.77V190.403C312.95 195.268 314.302 198.782 316.824 200.944C319.347 203.107 322.5 204.188 326.284 204.188C330.068 204.188 333.762 203.557 337.366 202.296C340.97 201.034 343.853 199.953 346.015 199.052L353.313 227.702ZM547.332 93.3717H581.658L522.466 235H492.194L468.409 174.186L445.165 235H414.623L355.701 93.3717H389.757L431.921 200.404L448.408 154.185L423.812 93.642H453.814L468.409 136.887L483.274 93.642H513.276L488.68 154.185L505.438 200.404L547.332 93.3717ZM598.379 235V93.3717H634.597V235H598.379ZM598.379 73.641V37.6934H634.597V73.641H598.379ZM722.678 235.811C713.308 235.811 704.659 234.009 696.731 230.405C688.982 226.621 682.225 221.396 676.459 214.729C670.873 208.062 666.549 200.404 663.486 191.755C660.423 183.106 658.891 173.916 658.891 164.186C658.891 153.915 660.513 144.365 663.756 135.536C666.999 126.707 671.504 118.958 677.27 112.291C683.216 105.444 690.154 100.219 698.082 96.6151C706.19 92.8311 715.11 90.9391 724.84 90.9391C735.831 90.9391 745.472 93.4618 753.76 98.5071C762.049 103.372 768.896 109.949 774.302 118.238V93.3717H805.925V228.243C805.925 242.298 802.501 254.28 795.654 264.191C788.987 274.281 779.707 281.939 767.815 287.165C755.923 292.57 742.408 295.273 727.273 295.273C711.956 295.273 698.983 292.66 688.352 287.435C677.721 282.39 668.621 275.182 661.053 265.812L680.784 246.622C686.189 253.289 692.947 258.515 701.055 262.299C709.344 266.083 718.083 267.975 727.273 267.975C735.021 267.975 742.048 266.533 748.355 263.65C754.841 260.947 759.977 256.623 763.761 250.676C767.725 244.91 769.707 237.433 769.707 228.243V210.404C765.022 218.513 758.355 224.819 749.706 229.324C741.237 233.649 732.228 235.811 722.678 235.811ZM734.84 206.891C738.805 206.891 742.589 206.26 746.192 204.999C749.796 203.737 753.13 202.025 756.193 199.863C759.256 197.701 761.959 195.178 764.301 192.295C766.644 189.232 768.446 186.169 769.707 183.106V149.32C767.545 143.734 764.481 138.869 760.517 134.725C756.733 130.581 752.409 127.427 747.544 125.265C742.859 122.923 737.904 121.751 732.678 121.751C727.092 121.751 722.047 122.923 717.542 125.265C713.038 127.608 709.164 130.941 705.92 135.266C702.677 139.41 700.154 144.095 698.352 149.32C696.731 154.366 695.92 159.681 695.92 165.267C695.92 171.033 696.911 176.439 698.893 181.484C700.875 186.529 703.578 190.944 707.001 194.728C710.605 198.512 714.749 201.485 719.434 203.647C724.299 205.809 729.435 206.891 734.84 206.891ZM890.737 237.703C878.664 237.703 867.132 235.721 856.141 231.757C845.149 227.792 835.689 221.936 827.761 214.188L840.734 190.674C849.203 197.521 857.492 202.566 865.6 205.809C873.889 209.053 881.817 210.675 889.385 210.675C896.413 210.675 901.999 209.413 906.143 206.891C910.467 204.368 912.63 200.584 912.63 195.539C912.63 192.115 911.458 189.502 909.116 187.7C906.774 185.718 903.35 184.007 898.845 182.565C894.521 181.124 889.205 179.502 882.899 177.7C872.448 174.276 863.708 170.943 856.681 167.7C849.654 164.456 844.338 160.402 840.734 155.537C837.311 150.491 835.599 144.095 835.599 136.347C835.599 126.977 837.941 118.958 842.626 112.291C847.491 105.444 854.158 100.129 862.627 96.3448C871.276 92.5608 881.367 90.6688 892.899 90.6688C902.99 90.6688 912.54 92.2905 921.549 95.5339C930.558 98.5971 938.757 103.642 946.145 110.67L931.549 133.644C924.342 128.058 917.495 124.004 911.008 121.481C904.521 118.778 897.944 117.427 891.277 117.427C887.493 117.427 883.89 117.877 880.466 118.778C877.223 119.679 874.52 121.211 872.357 123.373C870.375 125.355 869.384 128.238 869.384 132.022C869.384 135.446 870.285 138.149 872.087 140.131C874.069 141.933 876.952 143.554 880.736 144.996C884.7 146.437 889.475 148.059 895.061 149.861C906.413 153.104 915.963 156.438 923.711 159.861C931.64 163.285 937.586 167.519 941.55 172.565C945.514 177.43 947.496 184.187 947.496 192.836C947.496 206.891 942.361 217.882 932.09 225.81C921.819 233.739 908.035 237.703 890.737 237.703Z" fill="#8ACCD2"/>
</svg>
