<svg width="48" height="48" viewBox="0 0 48 48" fill="none" xmlns="http://www.w3.org/2000/svg">
<g clip-path="url(#clip0_3111_12370)">
<rect width="48" height="48" fill="#2B2B2B"/>
<mask id="mask0_3111_12370" style="mask-type:luminance" maskUnits="userSpaceOnUse" x="10" y="10" width="27" height="29">
<path d="M36.6008 10.0491H10.8508V38.4652H36.6008V10.0491Z" fill="white"/>
</mask>
<g mask="url(#mask0_3111_12370)">
<path d="M32.5402 17.3154C32.6752 15.4139 31.5667 13.6451 29.8062 12.9539C28.0459 12.2605 26.0426 12.8044 24.8635 14.2928L24.0186 14.0001L23.1571 13.7303L22.2852 13.4853C23.4767 11.4363 25.6254 10.143 27.9795 10.0538C30.3337 9.96658 32.5756 11.098 33.9145 13.0535L36.6009 13.2424L32.5402 17.3154Z" fill="white"/>
<path d="M34.5209 24.5646L34.5021 25.1521L34.4606 25.7396L34.3941 26.3209L34.3027 26.8959L34.1866 27.4709L34.0474 28.0397L33.8834 28.6023L33.6945 29.1586L33.4829 29.7026L33.2523 30.2403L32.9908 30.7592L32.7126 31.2783L32.4157 31.7806L32.0941 32.2643L31.7535 32.7417L31.3902 33.2005L31.0144 33.6406L30.6139 34.0683L30.1946 34.4772L29.7649 34.8696L29.3163 35.237L28.8493 35.5921L28.3698 35.9221L27.8778 36.2334L27.3692 36.52L26.8543 36.7899L26.327 37.0348L25.7873 37.2548L25.2413 37.4501L24.6891 37.6265L24.1245 37.7739L23.5598 37.9025L22.9827 38L22.4118 38.0789L21.8306 38.1288L21.2493 38.1599H20.6722L20.0909 38.135L19.5096 38.0853L18.9325 38.0125L18.3617 37.915L17.7908 37.7925L17.2323 37.6451L16.6739 37.4791L16.3231 37.6741L15.9536 37.8465L15.584 38.0064L15.2021 38.1413L14.8139 38.2513L14.4194 38.3363L14.0188 38.4028L13.6181 38.4465L13.2112 38.4651L12.8044 38.4588L12.4037 38.434L12.003 38.3778L11.6024 38.3053L15.8373 34.0538C20.0224 36.2999 25.1687 35.5338 28.5317 32.1625C31.8927 28.7912 32.6835 23.6035 30.481 19.3706L32.5361 17.3092L32.8289 17.8199L33.0967 18.3389L33.3457 18.8641L33.57 19.408L33.7693 19.9581L33.9519 20.5144L34.1036 21.077L34.2363 21.6458L34.3401 22.2271L34.419 22.8084L34.4793 23.3896L34.5104 23.9709L34.5166 24.5584L34.5209 24.5646Z" fill="white"/>
<path fill-rule="evenodd" clip-rule="evenodd" d="M20.9326 33.159C25.7068 33.1584 29.58 29.2539 29.58 24.436C29.58 23.1029 29.2571 21.8451 28.6789 20.7116L24.3453 25.9785C24.0028 26.3396 23.4326 26.3548 23.0714 26.0124C22.7103 25.67 22.6952 25.0997 23.0376 24.7386L28.3306 20.093C27.8167 19.261 27.1602 18.5074 26.3917 17.8543L18.3662 26.675C17.8433 27.1628 17.0239 27.1343 16.5361 26.6114C16.0483 26.0884 16.0768 25.2691 16.5998 24.7813L25.7982 17.3861C25.109 16.8818 24.3465 16.4519 23.5286 16.1094C23.5266 16.1089 23.5248 16.1084 23.523 16.1079C23.521 16.1073 23.5191 16.1068 23.5172 16.1062C23.5136 16.1052 23.5099 16.1042 23.5058 16.1031C20.6305 14.9915 17.6309 14.6375 14.4775 14.6375C13.4457 14.6375 12.4285 14.6936 11.4259 14.8015C11.0522 15.8644 10.8508 17.0062 10.8508 18.1978C10.8508 20.1471 11.3927 21.9656 12.3331 23.5142C12.2998 23.8173 12.2853 24.1246 12.2853 24.436C12.2853 29.2539 16.1585 33.1584 20.9326 33.159Z" fill="white"/>
</g>
</g>
<defs>
<clipPath id="clip0_3111_12370">
<rect width="48" height="48" fill="white"/>
</clipPath>
</defs>
</svg>
