<svg width="41" height="46" viewBox="0 0 41 46" fill="none" xmlns="http://www.w3.org/2000/svg">
<g clip-path="url(#clip0_23322_8234)">
<path d="M13.3836 28.3016C10.419 28.0391 6.87058 24.8935 4.13229 21.8293C9.96642 19.4984 14.4065 21.6619 16.0812 23.8932C16.4342 24.3594 17.4978 25.9752 16.4161 27.0977C15.5245 28.021 14.5559 28.4057 13.3836 28.3016Z" fill="#2E9CA6"/>
<path d="M29.7183 23.2731C29.7183 23.4632 29.7183 23.6488 29.7047 23.8344C29.4105 31.0625 23.4587 36.8242 16.1626 36.8242C14.7822 36.8242 13.447 36.616 12.1887 36.2313C11.6682 36.0729 11.1613 35.8828 10.668 35.6656C8.13337 34.5386 6.00611 32.6602 4.57135 30.3112C3.73402 28.9307 3.13205 27.3828 2.8288 25.7353C6.56282 29.5644 10.0026 31.6373 13.0623 31.9089C13.2931 31.927 13.5149 31.9406 13.7412 31.9406C15.7327 31.9406 17.5476 31.1395 19.0231 29.6097C21.0282 27.5277 21.0101 24.4318 18.9779 21.7207C17.3666 19.5753 14.7279 18.0184 11.7407 17.4481C8.54977 16.8416 5.10542 17.353 1.72896 18.9236C1.4574 18.5705 1.20846 18.2356 0.98216 17.9278C0.98216 17.9233 0.98216 17.9188 0.977634 17.9188C0.393769 16.4659 0.054313 14.8818 0.00905217 13.2298C0 13.103 0 12.9763 0 12.8496C0 11.0256 0.357561 9.29207 1.01384 7.70341C2.57082 7.39564 4.164 7.20101 5.80244 7.13312C6.25958 7.11049 6.71671 7.10144 7.17837 7.10144C10.3919 7.10144 13.4923 7.58121 16.4116 8.47737C18.3985 9.08839 20.7159 9.81257 22.4811 10.9124C24.2281 12.0032 25.672 13.3972 26.9347 15.0447C27.4733 15.7417 27.9395 16.4931 28.3288 17.2897C28.3921 17.4119 28.451 17.5386 28.5053 17.6653C29.2838 19.3762 29.7183 21.2726 29.7183 23.2731Z" fill="#2E9CA6"/>
<path d="M40.9701 5.08279L38.87 7.20553L34.869 11.2428L34.4752 11.6366C34.525 11.3288 34.5476 11.012 34.5521 10.6951V10.6318C34.5521 8.9526 33.9321 7.41825 32.9046 6.246C31.746 4.91985 30.0758 4.0599 28.2066 3.96938C28.0979 3.96485 27.9848 3.96032 27.8762 3.96032C26.6496 3.96032 25.4954 4.29073 24.5087 4.87007C24.0154 5.15974 23.5583 5.51277 23.1554 5.91559C21.7071 5.24121 20.1546 4.75692 18.5298 4.48988C19.3535 3.45793 20.3493 2.56176 21.4763 1.85569C21.861 1.60676 22.2593 1.38498 22.6712 1.18583C24.2462 0.425452 26.0114 0 27.8762 0C31.6373 0 34.9912 1.72896 37.1863 4.44009C37.4036 4.41746 37.6208 4.40841 37.8426 4.40841C38.9605 4.40841 40.0196 4.64829 40.9701 5.08279Z" fill="#2E9CA6"/>
<path d="M37.7747 22.2231C37.7747 24.3187 37.485 26.3418 36.9419 28.2609C34.3123 37.5891 25.7399 44.419 15.5788 44.419C13.5511 44.419 11.5913 44.1474 9.72656 43.636C8.40042 44.772 6.68051 45.46 4.79766 45.46C3.67066 45.46 2.6025 45.2156 1.64297 44.772L4.77503 41.6128L7.88445 38.4763C9.21059 39.1054 10.6227 39.5761 12.1073 39.8658H12.1118C13.2343 40.0875 14.393 40.2007 15.5788 40.2007C25.4004 40.2007 33.3844 32.3253 33.5519 22.5399C33.5564 22.4358 33.5564 22.3272 33.5564 22.2231C33.5564 21.9289 33.5473 21.6392 33.5338 21.3495C33.4749 20.132 33.2984 18.9552 33.0133 17.8192C32.8232 17.0679 32.5878 16.3392 32.3072 15.6286C32.1397 15.2031 31.9542 14.7867 31.7595 14.3794L34.4752 11.6366L34.869 11.2428C36.2223 13.6099 37.1501 16.2486 37.5484 19.0548C37.5756 19.2223 37.5982 19.3898 37.6163 19.5572C37.7204 20.4307 37.7747 21.3224 37.7747 22.2231Z" fill="#2E9CA6"/>
</g>
<defs>
<clipPath id="clip0_23322_8234">
<rect width="40.9701" height="45.46" fill="white"/>
</clipPath>
</defs>
</svg>
