<svg width="48" height="49" viewBox="0 0 48 49" fill="none" xmlns="http://www.w3.org/2000/svg">
<path d="M39.6342 12.2727C39.8621 9.06097 37.9898 6.07368 35.0165 4.90611C32.0433 3.73504 28.6598 4.65367 26.6682 7.16762L25.2412 6.67324L23.7861 6.21743L22.3135 5.8037C24.3261 2.34307 27.955 0.158708 31.9311 0.0079408C35.9071 -0.13932 39.6938 1.77156 41.9553 5.07441L46.4924 5.39348L39.6342 12.2727Z" fill="#444B5A"/>
<path d="M42.8299 24.9439L42.7983 25.9361L42.7282 26.9284L42.616 27.9101L42.4617 28.8813L42.2654 29.8526L42.0305 30.8133L41.7535 31.7634L41.4344 32.7031L41.0768 33.6217L40.6876 34.5298L40.2458 35.4064L39.776 36.2829L39.2746 37.1314L38.7311 37.9484L38.1561 38.7548L37.5425 39.5297L36.9079 40.273L36.2312 40.9953L35.5229 41.686L34.7972 42.3487L34.0398 42.9693L33.2509 43.5688L32.441 44.1263L31.61 44.6523L30.751 45.1361L29.8815 45.5919L28.9909 46.0056L28.0793 46.3773L27.1571 46.7069L26.2245 47.0049L25.2708 47.2539L24.3171 47.4712L23.3424 47.636L22.3782 47.7693L21.3964 47.8534L20.4147 47.906H19.44L18.4582 47.8639L17.4765 47.7798L16.5018 47.6571L15.5376 47.4923L14.5733 47.2854L13.6302 47.0365L12.687 46.756L12.0945 47.0856L11.4704 47.3766L10.8462 47.6466L10.2011 47.8745L9.54544 48.0603L8.87926 48.204L8.20256 48.3162L7.52587 48.3899L6.83865 48.4214L6.15143 48.4109L5.47473 48.3688L4.79804 48.2742L4.12134 48.1514L11.274 40.9707C18.3425 44.7645 27.0344 43.4707 32.7145 37.7766C38.391 32.0825 39.7269 23.3205 36.0068 16.1713L39.4779 12.6897L39.9723 13.5522L40.4246 14.4287L40.8454 15.3158L41.224 16.2344L41.5606 17.1636L41.8692 18.1033L42.1251 19.0534L42.3495 20.0141L42.5248 20.9959L42.6581 21.9776L42.7598 22.9593L42.8123 23.9411L42.8229 24.9333L42.8299 24.9439Z" fill="#444B5A"/>
<path fill-rule="evenodd" clip-rule="evenodd" d="M21.1475 38.972C29.2118 38.972 35.7544 32.3769 35.7544 24.239C35.7544 23.7376 35.7298 23.2397 35.6807 22.7488C35.5229 21.1605 35.1127 19.6423 34.4921 18.2434L21.8417 30.8657L14.1877 23.2116C13.5004 22.5244 13.5004 21.4095 14.1877 20.7222C14.8749 20.035 15.9899 20.035 16.6771 20.7222L21.8452 25.8904L32.6303 15.1298C30.9684 13.0016 28.7384 11.3466 26.1719 10.3965C26.1579 10.3894 26.1473 10.3859 26.1333 10.3824C25.937 10.3123 25.7371 10.2422 25.5338 10.1756C25.5197 10.1721 25.5092 10.1686 25.4952 10.165C20.7022 8.55921 15.5726 7.68967 10.2467 7.68967C8.5041 7.68967 6.78606 7.78433 5.09256 7.96666C4.46144 9.76183 4.12134 11.6902 4.12134 13.7028C4.12134 16.9951 5.03646 20.0666 6.62477 22.6822C6.56867 23.1941 6.54413 23.713 6.54413 24.239C6.54413 32.3769 13.0867 38.972 21.151 38.972H21.1475Z" fill="#444B5A"/>
</svg>
