<svg width="48" height="48" viewBox="0 0 48 48" fill="none" xmlns="http://www.w3.org/2000/svg">
<g clip-path="url(#clip0_16845_7575)">
<rect width="48" height="48" fill="#2E9CA6"/>
<mask id="mask0_16845_7575" style="mask-type:luminance" maskUnits="userSpaceOnUse" x="10" y="9" width="27" height="30">
<path d="M36.4318 9.75H10.6892V38.25H36.4318V9.75Z" fill="white"/>
</mask>
<g mask="url(#mask0_16845_7575)">
<path d="M32.3524 17.0222C32.5148 14.6173 30.7218 12.5354 28.3505 12.3707C26.8861 12.2697 25.5423 12.9233 24.6895 14.0048C24.6366 13.9848 24.5836 13.9661 24.5307 13.9474C24.3547 13.8838 24.1776 13.8227 23.9991 13.7628C23.9856 13.7578 23.9708 13.7528 23.9572 13.7491C23.3469 13.5445 22.7341 13.3599 22.1212 13.1953C23.3162 11.1333 25.5275 9.75 28.0563 9.75C30.4006 9.75 32.4692 10.9375 33.7122 12.7512L36.4194 12.9395L32.3511 17.0384C32.3511 17.0384 32.3524 17.0272 32.3524 17.0222Z" fill="white"/>
<path d="M34.3293 24.1811C34.3293 31.7776 28.2552 37.9346 20.7621 37.9346C19.2842 37.9346 17.8616 37.6951 16.5314 37.2523C15.4767 37.8859 14.2449 38.2502 12.9294 38.2502C12.4273 38.2502 11.9376 38.1966 11.465 38.0955L15.7007 33.8282C16.6839 34.3596 17.757 34.7401 18.8916 34.9409C19.4995 35.0494 20.1247 35.1056 20.7621 35.1056C26.7132 35.1056 31.5384 30.2146 31.5384 24.1811C31.5384 22.3499 31.0941 20.6235 30.3066 19.108L31.7463 17.6573L32.3592 17.0398C33.6094 19.1205 34.3293 21.5653 34.3293 24.1811Z" fill="white"/>
<path d="M29.0461 26.6559C27.69 31.2911 22.8833 33.9343 18.3105 32.5596C17.7038 32.3776 17.1328 32.1344 16.6012 31.8374C16.0695 31.5418 15.5761 31.1925 15.1269 30.7984L16.9519 28.9485C18.041 27.8508 19.5423 27.1722 21.1986 27.1722C22.855 27.1722 24.2763 27.8346 25.3543 28.8625C24.2677 27.6288 23.6057 26.0022 23.6057 24.2172C23.6057 22.4322 24.3144 20.6809 25.4762 19.4323C25.4576 19.4497 25.4417 19.4673 25.4233 19.4847C24.2 20.6136 22.5744 21.3009 20.7901 21.3009C19.0057 21.3009 17.3493 20.6011 16.1225 19.4536C17.0934 20.5362 17.8133 22.1054 17.8133 23.6859C17.8133 25.3773 17.134 26.9078 16.0363 28.0142L14.2101 29.8666C12.6977 28.0766 11.9237 25.6979 12.1735 23.268C11.2235 21.7088 10.6857 19.89 10.6857 17.923C10.6857 16.723 10.89 15.5717 11.2641 14.5027C15.4604 14.0461 19.541 14.5339 23.3017 15.7975C23.3041 15.7987 23.3054 15.7987 23.3079 15.8C23.4777 15.8573 23.6487 15.9147 23.8173 15.9758C28.0025 17.5874 30.3394 22.2339 29.0461 26.6559Z" fill="white"/>
</g>
</g>
<defs>
<clipPath id="clip0_16845_7575">
<rect width="48" height="48" fill="white"/>
</clipPath>
</defs>
</svg>
