<svg width="178" height="171" viewBox="0 0 178 171" fill="none" xmlns="http://www.w3.org/2000/svg">
<path d="M98.9062 -121.539C85.5223 -126.06 71.7306 -116.208 68.1016 -99.5349C61.2307 -67.9673 52.9468 -36.095 41.3613 -9.66187C29.7519 16.8258 16.1954 34.7226 0 43.0393L10.8486 103.198C60.4309 100.046 89.2811 82.7784 115.902 62.4182C104.465 80.724 79.2993 102.076 23.1797 108.306C9.3674 109.839 -0.832153 125.032 0.398438 142.239C1.62924 159.445 13.8244 172.152 27.6367 170.619C93.6807 163.288 134.567 136.175 157.061 98.3333C179.276 60.9582 179.705 19.5354 176.021 -6.65601L170.014 -49.3611L139.377 -28.7927C121.896 -17.0572 108.836 -6.62943 97.5752 2.36255C95.1612 4.29012 92.8302 6.15224 90.5557 7.94653C102.237 -21.9417 110.32 -54.454 116.569 -83.1638C120.198 -99.837 112.29 -117.018 98.9062 -121.539Z" fill="white" fill-opacity="0.3"/>
</svg>
