<svg width="148" height="94" viewBox="0 0 148 94" fill="none" xmlns="http://www.w3.org/2000/svg">
<path fill-rule="evenodd" clip-rule="evenodd" d="M226.15 32.7838C229.649 22.3935 222.026 11.6865 209.125 8.8692C184.7 3.5351 160.039 -2.89622 139.587 -11.8904C119.092 -20.9031 105.245 -31.4271 98.8099 -44L52.2633 -35.578C54.7016 2.91408 68.0623 25.3113 83.8158 45.9781C69.6519 37.0992 53.1308 17.5624 48.3106 -26.0048C47.1242 -36.7278 35.3695 -44.646 22.0557 -43.6905C8.74187 -42.7349 -1.08934 -33.2676 0.097032 -22.5446C5.76964 28.7272 26.7473 60.4687 56.0271 77.9307C84.9456 95.1772 116.996 95.5097 137.261 92.6497L170.304 87.9864L154.389 64.2021C145.309 50.6314 137.241 40.4928 130.283 31.7505C128.792 29.8764 127.351 28.0665 125.963 26.3007C149.089 35.3695 174.244 41.6448 196.458 46.496C209.359 49.3133 222.652 43.1741 226.15 32.7838Z" fill="#FFF6EF"/>
</svg>
