<svg enable-background="new 0 0 512 512" height="512" viewBox="0 0 512 512" width="512" xmlns="http://www.w3.org/2000/svg" xmlns:xlink="http://www.w3.org/1999/xlink"><linearGradient id="SVGID_1_" gradientUnits="userSpaceOnUse" x1="256" x2="256" y1="510.791" y2="1.209"><stop offset="0" stop-color="#923edc"/><stop offset=".682" stop-color="#3e63e3"/><stop offset="1" stop-color="#1675e7"/></linearGradient><g id="_x31_6_Code_Lock"><path d="m180.807 218.812c20.471 0 37.121-16.65 37.121-37.118s-16.65-37.118-37.121-37.118c-20.445 0-37.079 16.65-37.079 37.118s16.635 37.118 37.079 37.118zm0-63.62c14.613 0 26.504 11.889 26.504 26.502s-11.892 26.502-26.504 26.502c-14.592 0-26.463-11.889-26.463-26.502s11.871-26.502 26.463-26.502zm-89.704 63.62c20.465 0 37.116-16.65 37.116-37.118s-16.65-37.118-37.116-37.118c-20.45 0-37.084 16.65-37.084 37.118s16.634 37.118 37.084 37.118zm0-63.62c14.613 0 26.499 11.889 26.499 26.502s-11.886 26.502-26.499 26.502c-14.592 0-26.468-11.889-26.468-26.502s11.875-26.502 26.468-26.502zm89.704-29.024c20.471 0 37.121-16.65 37.121-37.118s-16.65-37.118-37.121-37.118c-20.445 0-37.079 16.65-37.079 37.118s16.635 37.118 37.079 37.118zm0-63.62c14.613 0 26.504 11.889 26.504 26.502s-11.892 26.502-26.504 26.502c-14.592 0-26.463-11.889-26.463-26.502s11.871-26.502 26.463-26.502zm-89.704 63.62c20.465 0 37.116-16.65 37.116-37.118s-16.65-37.118-37.116-37.118c-20.45 0-37.084 16.65-37.084 37.118s16.634 37.118 37.084 37.118zm0-63.62c14.613 0 26.499 11.889 26.499 26.502s-11.886 26.502-26.499 26.502c-14.592 0-26.468-11.889-26.468-26.502s11.875-26.502 26.468-26.502zm-75.497-12.446v263.199c0 26.961 21.932 48.893 48.893 48.893h97.59l107.676 107.653c18.733 22.048 55.831 40.944 95.251 40.944 72.443 0 131.377-58.934 131.377-131.374v-176.242c0-20.446-16.511-36.823-36.773-36.823-10.518 0-20.025 4.422-26.748 11.498-2.952-17.925-18.296-30.851-36.338-30.851-10.248 0-19.527 4.199-26.209 10.964v-.474c0-15.819-9.891-29.377-24.255-34.587v-72.8c0-26.961-21.932-48.893-48.893-48.893h-232.677c-26.961 0-48.894 21.932-48.894 48.893zm344.103 107.386v172.795c0 2.931 2.374 5.308 5.308 5.308s5.308-2.377 5.308-5.308v-146.498c0-.003-.002-.005-.002-.008s.002-.005.002-.008c0-14.421 11.757-26.155 26.209-26.155 14.528 0 26.209 11.683 26.209 26.155-.036 179.489-.023 117.583-.026 130.975 0 2.931 2.374 5.308 5.308 5.308s5.308-2.377 5.308-5.308v-111.441c.001-.045.026-.083.026-.128 0-14.45 11.783-26.206 26.261-26.206 14.492 0 26.157 11.712 26.157 26.206v176.242c0 66.585-54.175 120.758-120.76 120.758-34.777 0-67.48-15.405-87.46-37.525-145.589-145.842-138.197-137.57-141.055-141.751-6.832-10.043-6.601-23.453 1.172-32.469 9.768-11.414 27.7-12.108 38.36-1.439 4.632 4.632 52.855 52.853 59.157 59.154l.01.01c3.335 3.335 9.061.971 9.061-3.753v-252.388c0-28.209 32.175-28.774 24.391-27.388 16.387-.833 28.027 12 28.027 26.144-.001 53.614-.004 182.238-.005 230.091 0 2.931 2.374 5.308 5.308 5.308s5.308-2.377 5.308-5.308v-161.334c0-.009.005-.017.005-.026 0-13.969 11.451-26.222 26.209-26.222 14.263 0 26.204 11.509 26.204 26.209zm-161.416 136.749-14.759-14.759c-7.803-7.81-18.279-11.406-28.588-10.678 2.54-11.967 13.172-20.971 25.867-20.971 14.608 0 26.494 11.886 26.494 26.497 0 7.758-3.307 14.945-9.014 19.911zm-133.793-282.412h232.678c21.108 0 38.277 17.171 38.277 38.277v70.595c-10.369-.516-20.923 3.589-28.158 10.935.005-.55.363-42.058.363-42.608 0-20.946-17.397-37.113-37.167-37.113-19.004 0-37.064 15.709-37.064 37.113 0 1.07.038 33.866.207 181.894-.116 1.121-.207 2.273-.207 3.407 0 1.137.092 2.289.207 3.409v51.845l-27.87-27.87c7.672-6.942 12.158-16.758 12.158-27.384 0-20.465-16.65-37.113-37.11-37.113-19.453 0-35.417 15.089-36.916 34.187-3.762 1.471-7.395 3.554-10.943 6.757-2.812 2.508-4.647 4.645-6.701 8.012 1.256-3.72 1.966-7.689 1.966-11.827 0-20.468-16.65-37.118-37.116-37.118-20.45 0-37.084 16.65-37.084 37.118 0 20.465 16.635 37.116 37.084 37.116 13.44 0 25.199-7.205 31.713-17.932-3.801 11.545-1.642 24.776 6.161 35.01 3.249 4.276 3.574 3.929 22.481 23.044h-86.959c-21.108 0-38.277-17.171-38.277-38.277v-263.2c0-21.106 17.168-38.277 38.277-38.277zm53.102 262.515c0 14.613-11.886 26.499-26.499 26.499-14.592 0-26.468-11.886-26.468-26.499s11.876-26.502 26.468-26.502c14.613 0 26.499 11.889 26.499 26.502z" fill="url(#SVGID_1_)"/></g></svg>