<svg id="Layer_1" height="512" viewBox="0 0 512 512" width="512" xmlns="http://www.w3.org/2000/svg" xmlns:xlink="http://www.w3.org/1999/xlink" data-name="Layer 1"><linearGradient id="linear-gradient" gradientUnits="userSpaceOnUse" x1="255.102" x2="255.102" y1="468.977" y2="30.691"><stop offset=".322" stop-color="#a163f5"/><stop offset=".466" stop-color="#b074ee"/><stop offset=".752" stop-color="#d8a1dd"/><stop offset=".898" stop-color="#efbad3"/></linearGradient><linearGradient id="linear-gradient-2" x1="256" x2="256" xlink:href="#linear-gradient" y1="468.977" y2="30.691"/><linearGradient id="linear-gradient-3" x1="59.887" x2="59.887" xlink:href="#linear-gradient" y1="468.977" y2="30.69"/><linearGradient id="linear-gradient-4" x1="59.887" x2="59.887" xlink:href="#linear-gradient" y1="468.977" y2="30.689"/><path d="m158.731 239.989h84.492a17.788 17.788 0 0 0 11.879-4.554 17.786 17.786 0 0 0 11.879 4.554h84.492a17.9 17.9 0 0 0 17.879-17.879v-84.8a17.9 17.9 0 0 0 -17.879-17.878h-37.581a17.924 17.924 0 0 0 1.335-6.768v-84.774a17.9 17.9 0 0 0 -17.869-17.89h-84.514a17.9 17.9 0 0 0 -17.867 17.89v84.776a17.923 17.923 0 0 0 1.334 6.768h-37.58a17.9 17.9 0 0 0 -17.879 17.878v84.8a17.9 17.9 0 0 0 17.879 17.877zm192.742-108.555a5.886 5.886 0 0 1 5.879 5.878v84.8a5.886 5.886 0 0 1 -5.879 5.879h-84.492a5.885 5.885 0 0 1 -5.879-5.879v-84.8a5.885 5.885 0 0 1 5.879-5.878zm-144.496-103.544a5.884 5.884 0 0 1 5.867-5.89h84.514a5.886 5.886 0 0 1 5.869 5.89v84.776c0 3.219-2.751 6.133-6.325 6.768h-83.602c-3.573-.635-6.324-3.549-6.324-6.768zm-54.125 109.422a5.885 5.885 0 0 1 5.879-5.878h84.492a5.886 5.886 0 0 1 5.879 5.878v84.8a5.886 5.886 0 0 1 -5.879 5.879h-84.492a5.885 5.885 0 0 1 -5.879-5.879z" fill="url(#linear-gradient)"/><path d="m476.7 374.878v-84.8a17.9 17.9 0 0 0 -17.876-17.878h-84.492a17.9 17.9 0 0 0 -17.879 17.879v84.8a17.779 17.779 0 0 0 1.321 6.718 17.812 17.812 0 0 0 -5.4-.839h-84.495a17.793 17.793 0 0 0 -12.257 4.9 17.79 17.79 0 0 0 -11.5-4.211h-84.493a17.756 17.756 0 0 0 -8.095 1.958 17.8 17.8 0 0 0 2.216-8.535v-84.779a17.9 17.9 0 0 0 -17.868-17.89h-84.514a17.9 17.9 0 0 0 -17.868 17.89v84.776a18.232 18.232 0 0 0 4.856 12.245 17.8 17.8 0 0 0 -4.856 12.211v84.8a17.9 17.9 0 0 0 17.879 17.877h84.492a17.786 17.786 0 0 0 11.879-4.554 17.786 17.786 0 0 0 11.879 4.554h84.492a17.8 17.8 0 0 0 12.257-4.9 17.789 17.789 0 0 0 11.5 4.21h84.492a17.781 17.781 0 0 0 11.879-4.554 17.781 17.781 0 0 0 11.879 4.554h84.492a17.9 17.9 0 0 0 17.88-17.876v-84.8a17.815 17.815 0 0 0 -5.516-12.885 17.768 17.768 0 0 0 3.716-10.871zm-334.95 109.243a5.887 5.887 0 0 1 -5.879 5.879h-84.492a5.887 5.887 0 0 1 -5.879-5.879v-84.8a5.887 5.887 0 0 1 5.879-5.879h84.492a5.887 5.887 0 0 1 5.879 5.879zm0-109.254a6.987 6.987 0 0 1 -6.228 6.577h-83.793a6.987 6.987 0 0 1 -6.229-6.577v-84.776a5.887 5.887 0 0 1 5.868-5.89h84.514a5.887 5.887 0 0 1 5.868 5.89zm108.25 108.567v.687a5.887 5.887 0 0 1 -5.879 5.879h-84.492a5.887 5.887 0 0 1 -5.879-5.879v-84.8a5.887 5.887 0 0 1 5.879-5.879h84.492a5.887 5.887 0 0 1 5.879 5.881zm108.25 0a5.886 5.886 0 0 1 -5.879 5.878h-84.492a5.886 5.886 0 0 1 -5.879-5.878v-84.8a5.887 5.887 0 0 1 5.879-5.879h84.492a5.887 5.887 0 0 1 5.879 5.879zm10.2-108.556v-84.8a5.887 5.887 0 0 1 5.879-5.879h84.492a5.887 5.887 0 0 1 5.879 5.879v84.8a5.887 5.887 0 0 1 -5.879 5.879h-84.489a5.887 5.887 0 0 1 -5.879-5.879zm98.05 108.556a5.886 5.886 0 0 1 -5.879 5.878h-84.492a5.886 5.886 0 0 1 -5.879-5.878v-84.8a5.887 5.887 0 0 1 5.879-5.879h84.492a5.887 5.887 0 0 1 5.879 5.879z" fill="url(#linear-gradient-2)"/><path d="m59.887 322.836a6 6 0 0 0 -6 6v37.132a6 6 0 0 0 12 0v-37.132a6 6 0 0 0 -6-6z" fill="url(#linear-gradient-3)"/><path d="m59.887 293.826a6 6 0 0 0 -6 6v10.309a6 6 0 0 0 12 0v-10.309a6 6 0 0 0 -6-6z" fill="url(#linear-gradient-4)"/></svg>