<?xml version="1.0" encoding="iso-8859-1"?>
<!-- Generator: Adobe Illustrator 19.0.0, SVG Export Plug-In . SVG Version: 6.00 Build 0)  -->
<svg version="1.1" id="Layer_1" xmlns="http://www.w3.org/2000/svg" xmlns:xlink="http://www.w3.org/1999/xlink" x="0px" y="0px"
	 viewBox="0 0 512 512" style="enable-background:new 0 0 512 512;" xml:space="preserve">
<path style="fill:#00A35C;" d="M302.648,358.287c-28.593,25.059-24.161,73.172-24.161,73.172
	c92.157-18.431,103.251-72.545,104.588-85.312C360.408,352.005,333.794,356.205,302.648,358.287z"/>
<path style="fill:#007F42;" d="M359.771,351.301c-3.312,16.56-17.842,55.077-81.521,74.576c0.047,3.506,0.237,5.582,0.237,5.582
	c92.157-18.431,103.251-72.545,104.588-85.312C375.729,348.045,367.964,349.766,359.771,351.301z"/>
<path style="fill:#00A35C;" d="M414.964,335.873c-8.893,3.523-18.591,6.733-29.181,9.57c-38.2,77.489,116.278,65.061,116.278,65.061
	C477.904,344.627,440.556,334.04,414.964,335.873z"/>
<path style="fill:#007F42;" d="M475.923,411.218c15.263,0.162,26.138-0.713,26.138-0.713c-24.156-65.878-61.504-76.465-87.096-74.63
	c-1.149,0.455-2.311,0.904-3.487,1.348C432.83,342.198,457.384,360.607,475.923,411.218z"/>
<g>
	<path style="fill:#FFDCAF;" d="M394.082,202.646c11.648-40.615,0.792-94.388-29.161-102.978
		c-21.171-6.072-46.214,12.057-63.192,37.549c3.251,11.181,5.065,22.957,5.065,34.272c0,22.542-7.193,38.69-18.632,48.856
		c2.44,4.616,5.571,8.703,9.257,12.267c28.339-2.165,58.531-6.432,90.202-13.497C390.144,214.257,392.323,208.782,394.082,202.646z"
		/>
	<path style="fill:#FFDCAF;" d="M212.586,220.346c-11.44-10.165-18.632-26.315-18.632-48.856c0-11.315,1.813-23.092,5.065-34.272
		c-16.979-25.493-42.021-43.621-63.192-37.549c-29.953,8.59-40.809,62.364-29.161,102.978c1.67,5.824,3.724,11.041,6.085,15.714
		c23.846,5.815,54.482,11.464,90.576,14.255C207.013,229.052,210.145,224.963,212.586,220.346z"/>
	<path style="fill:#FFDCAF;" d="M306.794,171.49c0,42.252-25.26,62.059-56.42,62.059s-56.42-19.807-56.42-62.059
		s25.26-90.949,56.42-90.949S306.794,129.238,306.794,171.49z"/>
</g>
<g>
	<path style="fill:#D3B492;" d="M193.953,171.49c0-11.315,1.813-23.092,5.065-34.271c-3.973-5.966-8.392-11.521-13.097-16.465
		c-6.971,15.54-11.097,33.664-11.097,50.736c0,30.408,13.085,49.19,32.037,57.33c2.184-2.596,4.109-5.416,5.725-8.474
		C201.146,210.181,193.953,194.032,193.953,171.49z"/>
	<path style="fill:#D3B492;" d="M250.374,80.542c-3.854,0-7.616,0.747-11.253,2.132c25.768,9.816,45.167,51.79,45.167,88.817
		c0,37.026-19.4,56.814-45.167,61.142c3.637,0.611,7.399,0.916,11.253,0.916c31.16,0,56.42-19.807,56.42-62.059
		S281.534,80.542,250.374,80.542z"/>
</g>
<path style="fill:#B79274;" d="M394.45,136.737c5.657,20.047,5.697,44.761-0.368,65.91c-1.76,6.136-3.938,11.609-6.462,16.47
	c-31.671,7.064-61.862,11.332-90.202,13.497c-3.686-3.565-6.817-7.652-9.257-12.267c-10.003,8.889-23.252,13.203-37.788,13.203
	c-14.536,0-27.785-4.314-37.788-13.203c-2.441,4.617-5.573,8.705-9.261,12.271c-36.093-2.792-66.73-8.44-90.576-14.255
	c-2.362-4.673-4.414-9.891-6.085-15.714c-5.772-20.123-6.015-43.475-1.151-62.964C46.499,155.216,8.44,181.889,8.44,220.153
	C8.44,285.459,55.751,359.78,256,359.78s247.56-74.321,247.56-139.626C503.56,179.347,460.276,151.724,394.45,136.737z"/>
<g>
	<path style="fill:#7A5D43;" d="M81.441,147.078c-3.15,17.82-2.338,37.933,2.719,55.568c1.67,5.824,3.724,11.041,6.085,15.714
		c23.846,5.817,54.482,11.464,90.576,14.256c0.655-0.634,1.286-1.29,1.906-1.957c-27.247-3.061-50.81-7.625-69.976-12.299
		c-2.362-4.673-4.414-9.891-6.085-15.714c-5.772-20.123-6.015-43.475-1.151-62.964C97.035,141.915,89.004,144.385,81.441,147.078z"
		/>
	<path style="fill:#7A5D43;" d="M394.45,136.737c0.584,2.071,1.094,4.202,1.557,6.362c52.104,15.896,85.047,41.457,85.047,77.053
		c0,64.062-45.546,136.791-236.308,139.537c3.702,0.053,7.44,0.089,11.253,0.089c200.249,0,247.56-74.321,247.56-139.626
		C503.56,179.347,460.276,151.724,394.45,136.737z"/>
</g>
<path style="fill:#D3B492;" d="M306.794,171.49c0-11.315-1.813-23.092-5.065-34.271c3.973-5.966,8.392-11.521,13.097-16.465
	c6.971,15.54,11.097,33.664,11.097,50.736c0,30.408-13.086,49.19-32.037,57.33c-2.184-2.596-4.11-5.416-5.727-8.474
	C299.601,210.181,306.794,194.032,306.794,171.49z"/>
<path d="M463.819,340.835c-6.152-4.212-12.614-7.437-19.35-9.697c5.433-3.096,10.566-6.371,15.361-9.851
	c6.548-4.751,12.497-9.881,17.847-15.357c0.371-0.326,0.713-0.683,1.021-1.067C500.564,281.965,512,253.097,512,220.153
	c0-22.544-11.501-50.977-58.513-72.911c7.879,0.604,16.163,2.379,23.723,6.248c1.231,0.63,2.544,0.928,3.838,0.928
	c3.068,0,6.026-1.679,7.52-4.598c2.123-4.15,0.48-9.234-3.668-11.357c-26.778-13.701-58.628-7.034-67.879-4.632
	c-5.051-1.462-10.357-2.866-15.931-4.206c-6.8-20.306-18.64-33.711-33.843-38.069c-19.686-5.65-43.297,5.239-62.841,28.122
	c-2.038-4.815-4.322-9.442-6.853-13.768c-12.753-21.802-29.508-33.809-47.181-33.809s-34.428,12.007-47.181,33.809
	c-2.531,4.326-4.814,8.954-6.853,13.769c-19.545-22.882-43.155-33.771-62.841-28.122c-15.981,4.583-28.251,19.159-34.852,41.246
	c-5.144,1.43-10.032,2.919-14.676,4.459c-8.643-1.605-39.05-6.381-63.116,0.61c-4.476,1.3-7.051,5.982-5.75,10.458
	c1.071,3.69,4.441,6.088,8.101,6.088c0.779,0,1.572-0.109,2.359-0.338c7.898-2.293,16.873-3.04,25.339-3.021
	C12.453,171.29,1.292,196.063,0.11,216.39c-0.1,0.64-0.131,1.29-0.082,1.935C0.011,218.938,0,219.549,0,220.153
	c0,41.399,18.04,76.37,52.17,101.134c42.921,31.142,111.499,46.932,203.83,46.932c9.564,0,18.857-0.179,27.909-0.518
	c-16.951,27.658-13.988,62.759-13.825,64.533c0.219,2.382,1.44,4.561,3.359,5.991c1.47,1.096,3.242,1.673,5.045,1.673
	c0.551,0,1.106-0.054,1.655-0.163c41.085-8.218,71.766-24.255,91.191-47.668c1.649-1.987,3.156-3.968,4.549-5.932
	c0.558,1.003,1.149,1.995,1.807,2.964c10.997,16.197,35.739,26.086,73.533,29.394c10.364,0.908,20.246,1.191,28.534,1.191
	c13.208,0,22.37-0.718,22.98-0.767c2.629-0.212,5.009-1.64,6.431-3.862c1.422-2.221,1.724-4.979,0.816-7.456
	C498.563,376.453,483.031,353.99,463.819,340.835z M310.907,138.766c16.261-22.895,36.726-35.272,51.688-30.986
	c10.525,3.019,19.187,14.644,23.921,31.969c0.212,0.773,0.416,1.552,0.61,2.337c0.118,0.48,0.23,0.964,0.341,1.45
	c0.153,0.665,0.302,1.332,0.441,2.004c0.131,0.628,0.254,1.26,0.374,1.895c0.098,0.515,0.192,1.033,0.282,1.553
	c0.14,0.806,0.27,1.616,0.392,2.431c0.051,0.339,0.1,0.677,0.147,1.017c0.138,0.992,0.267,1.99,0.38,2.993
	c0.017,0.153,0.034,0.307,0.051,0.46c1.332,12.309,0.726,25.309-1.796,37.286c-0.066,0.316-0.145,0.627-0.214,0.942
	c-0.195,0.883-0.389,1.768-0.605,2.64c-0.297,1.2-0.612,2.389-0.95,3.565c-1.158,4.04-2.544,7.85-4.133,11.377
	c-28.549,6.15-55.735,9.978-81.162,12.081c-0.568-0.659-1.109-1.337-1.631-2.025c-0.062-0.081-0.119-0.165-0.18-0.246
	c0.321-0.368,0.621-0.753,0.933-1.13c0.309-0.375,0.628-0.742,0.928-1.124c0.639-0.812,1.257-1.644,1.854-2.494
	c0.009-0.014,0.019-0.026,0.029-0.038c0.637-0.908,1.249-1.839,1.839-2.788c0.008-0.012,0.015-0.026,0.022-0.038
	c0.574-0.925,1.123-1.871,1.652-2.835c0.052-0.096,0.1-0.194,0.152-0.289c0.48-0.886,0.944-1.787,1.386-2.704
	c0.064-0.133,0.123-0.269,0.187-0.403c0.421-0.888,0.826-1.788,1.212-2.705c0.066-0.159,0.129-0.322,0.196-0.482
	c0.37-0.899,0.725-1.809,1.061-2.736c0.066-0.182,0.129-0.366,0.194-0.549c0.322-0.91,0.629-1.832,0.919-2.768
	c0.064-0.208,0.127-0.416,0.189-0.625c0.276-0.918,0.536-1.847,0.78-2.788c0.061-0.235,0.122-0.47,0.181-0.707
	c0.23-0.919,0.443-1.851,0.644-2.792c0.057-0.268,0.116-0.536,0.17-0.806c0.185-0.915,0.353-1.842,0.51-2.776
	c0.052-0.305,0.106-0.607,0.154-0.914c0.143-0.908,0.268-1.829,0.385-2.756c0.043-0.341,0.091-0.677,0.131-1.02
	c0.105-0.909,0.189-1.832,0.269-2.758c0.032-0.365,0.071-0.725,0.098-1.093c0.071-0.949,0.12-1.911,0.164-2.875
	c0.017-0.35,0.043-0.693,0.055-1.044c0.047-1.312,0.074-2.638,0.074-3.979c0-1.357-0.027-2.727-0.075-4.105
	c-0.011-0.303-0.034-0.609-0.047-0.913c-0.047-1.093-0.101-2.189-0.179-3.291c-0.016-0.232-0.041-0.464-0.059-0.695
	c-0.091-1.196-0.194-2.395-0.32-3.599c-0.01-0.092-0.022-0.185-0.033-0.276C313.822,152.03,312.614,145.346,310.907,138.766z
	 M250.374,88.98c17.264,0,34.755,21.979,43.038,49.667c0.054,0.312,0.124,0.621,0.213,0.928c3.095,10.637,4.73,21.673,4.73,31.914
	c0,1.103-0.022,2.189-0.061,3.262c-0.017,0.461-0.047,0.913-0.071,1.369c-0.03,0.589-0.059,1.179-0.1,1.759
	c-0.044,0.607-0.101,1.203-0.159,1.8c-0.037,0.394-0.072,0.79-0.115,1.179c-0.08,0.719-0.171,1.429-0.269,2.132
	c-0.032,0.226-0.062,0.452-0.095,0.677c-0.125,0.833-0.26,1.656-0.411,2.467c-0.009,0.046-0.017,0.093-0.026,0.14
	c-2.723,14.472-9.64,25.357-20.032,31.868c-0.167,0.102-0.333,0.205-0.501,0.306c-0.367,0.222-0.74,0.435-1.116,0.647
	c-0.386,0.216-0.773,0.431-1.168,0.635c-0.126,0.066-0.254,0.128-0.381,0.194c-4.263,2.152-8.999,3.655-14.12,4.468
	c-0.023,0.003-0.045,0.007-0.069,0.01c-0.672,0.106-1.353,0.197-2.038,0.279c-0.188,0.023-0.378,0.042-0.568,0.063
	c-0.565,0.062-1.134,0.118-1.708,0.164c-0.379,0.03-0.764,0.052-1.149,0.074c-0.423,0.026-0.844,0.055-1.272,0.072
	c-0.843,0.033-1.694,0.054-2.557,0.054s-1.714-0.021-2.557-0.054c-0.428-0.017-0.848-0.046-1.272-0.072
	c-0.384-0.023-0.769-0.044-1.149-0.074c-0.574-0.046-1.142-0.102-1.708-0.164c-0.19-0.02-0.379-0.041-0.568-0.063
	c-0.685-0.082-1.365-0.173-2.038-0.279c-0.023-0.003-0.046-0.007-0.069-0.01c-5.121-0.814-9.857-2.316-14.12-4.468
	c-0.127-0.064-0.255-0.127-0.38-0.194c-0.395-0.204-0.781-0.419-1.168-0.635c-0.375-0.212-0.749-0.424-1.116-0.647
	c-0.168-0.101-0.335-0.203-0.501-0.306c-10.393-6.51-17.309-17.396-20.032-31.868c-0.009-0.046-0.017-0.093-0.026-0.14
	c-0.151-0.81-0.286-1.634-0.411-2.467c-0.033-0.225-0.064-0.451-0.095-0.677c-0.099-0.703-0.189-1.413-0.269-2.132
	c-0.043-0.389-0.078-0.785-0.115-1.179c-0.057-0.596-0.115-1.193-0.159-1.8c-0.042-0.581-0.07-1.17-0.1-1.759
	c-0.024-0.457-0.054-0.907-0.071-1.369c-0.038-1.075-0.061-2.161-0.061-3.262c0-10.24,1.635-21.276,4.73-31.915
	c0.089-0.306,0.159-0.616,0.213-0.927C215.618,110.959,233.11,88.98,250.374,88.98z M138.152,107.78
	c14.961-4.291,35.427,8.09,51.688,30.986c-1.701,6.563-2.909,13.231-3.61,19.796c-0.012,0.113-0.027,0.224-0.039,0.336
	c-0.124,1.183-0.224,2.361-0.314,3.537c-0.019,0.251-0.046,0.504-0.064,0.755c-0.077,1.092-0.129,2.175-0.177,3.257
	c-0.014,0.313-0.037,0.628-0.048,0.941c-0.05,1.377-0.075,2.747-0.075,4.104c0,1.342,0.027,2.667,0.074,3.98
	c0.012,0.349,0.038,0.69,0.055,1.037c0.045,0.969,0.095,1.934,0.165,2.885c0.027,0.362,0.065,0.717,0.097,1.077
	c0.08,0.932,0.165,1.86,0.271,2.775c0.038,0.336,0.087,0.667,0.128,1.001c0.117,0.934,0.243,1.861,0.387,2.777
	c0.047,0.298,0.1,0.593,0.15,0.889c0.159,0.944,0.329,1.88,0.515,2.805c0.053,0.26,0.109,0.518,0.164,0.776
	c0.203,0.953,0.419,1.896,0.652,2.827c0.056,0.225,0.114,0.448,0.172,0.672c0.248,0.955,0.511,1.897,0.791,2.829
	c0.059,0.196,0.117,0.39,0.178,0.585c0.294,0.951,0.607,1.888,0.934,2.813c0.06,0.168,0.117,0.338,0.178,0.504
	c0.342,0.943,0.703,1.87,1.08,2.785c0.06,0.144,0.116,0.29,0.177,0.434c0.394,0.936,0.807,1.856,1.237,2.761
	c0.054,0.115,0.106,0.232,0.161,0.347c0.452,0.94,0.926,1.86,1.418,2.766c0.042,0.077,0.08,0.155,0.122,0.231
	c1.599,2.912,3.399,5.655,5.405,8.207c0.298,0.379,0.613,0.743,0.919,1.114c0.314,0.379,0.617,0.767,0.94,1.138
	c-0.061,0.081-0.118,0.164-0.179,0.245c-0.542,0.717-1.104,1.425-1.698,2.11c-0.62-0.052-1.251-0.099-1.867-0.152
	c-2.695-0.235-5.387-0.479-8.068-0.751c-0.542-0.054-1.069-0.114-1.607-0.169c-3.047-0.316-6.088-0.649-9.117-1.013
	c-0.096-0.011-0.195-0.023-0.29-0.034c-3.275-0.394-6.536-0.818-9.787-1.265c-0.325-0.045-0.648-0.09-0.972-0.136
	c-3.222-0.449-6.433-0.922-9.63-1.423c-0.105-0.016-0.205-0.034-0.309-0.051c-2.865-0.451-5.715-0.933-8.559-1.426
	c-0.715-0.125-1.438-0.246-2.146-0.374c-2.57-0.457-5.127-0.935-7.677-1.426c-1.092-0.21-2.174-0.422-3.246-0.636
	c-2.243-0.446-4.476-0.904-6.702-1.376c-1.335-0.284-2.641-0.571-3.942-0.857c-1.449-0.318-2.892-0.646-4.333-0.977
	c-1.048-0.241-2.087-0.482-3.113-0.724c-1.482-3.366-2.776-6.967-3.863-10.753c-0.331-1.153-0.638-2.315-0.929-3.479
	c-4.357-17.575-4.443-37.902-0.146-55.114c0.015-0.059,0.018-0.117,0.032-0.176C118.148,124.257,126.779,111.042,138.152,107.78z
	 M62.083,307.624c-25.256-18.324-40.027-42.086-44.065-70.793c9.992,7.628,24.885,17.814,44.985,28.537
	c1.266,0.675,2.625,0.996,3.965,0.996c3.016,0,5.935-1.622,7.454-4.47c2.194-4.113,0.638-9.225-3.474-11.418
	c-29.515-15.745-47.224-30.34-53.701-36.112c2.432-19.037,17.769-42.561,69.522-60.246c0.345-0.095,0.684-0.207,1.013-0.343
	c2.246-0.757,4.551-1.505,6.934-2.239c-2.099,16.186-1.191,33.295,2.662,48.985c0.053,0.217,0.104,0.435,0.158,0.652
	c0.321,1.277,0.655,2.549,1.016,3.806c0.098,0.339,0.212,0.665,0.312,1.003c-25.073-7.031-39.252-13.267-39.651-13.445
	c-4.251-1.907-9.246-0.014-11.158,4.237c-1.912,4.251-0.015,9.248,4.237,11.159c1.78,0.8,44.136,19.578,114.945,29.31
	c0.084,0.011,0.17,0.024,0.254,0.036c0.417,0.057,0.823,0.118,1.241,0.174c3.339,0.45,6.784,0.88,10.313,1.291
	c0.026,0.003,0.053,0.006,0.079,0.009c3.535,0.411,7.161,0.8,10.881,1.162c0.464,0.045,0.926,0.093,1.391,0.137
	c2.998,0.285,6.057,0.551,9.17,0.799c0.706,0.057,1.405,0.129,2.112,0.183c0.208,0.016,0.415,0.024,0.622,0.024
	c14.305,1.074,29.762,1.726,46.262,1.726c14.919,0,30.683-0.535,47.181-1.761c0.051,0.004,0.101,0.004,0.151,0.007
	c0.134,0.008,0.267,0.018,0.402,0.019c0.042,0.001,0.083,0.006,0.125,0.006c0.214,0,0.429-0.008,0.644-0.024
	c3.798-0.29,7.6-0.617,11.407-0.977c26.65-2.528,53.505-6.79,79.989-12.698c0.214-0.047,0.42-0.114,0.627-0.177
	c21.912-4.887,44.579-11.109,67.85-18.95c4.417-1.488,6.792-6.276,5.303-10.692c-1.489-4.418-6.276-6.793-10.692-5.303
	c-17.38,5.856-34.405,10.772-51.023,14.902c0.223-0.721,0.464-1.427,0.674-2.159v-0.001c0.358-1.248,0.691-2.512,1.009-3.783
	c0.081-0.324,0.155-0.654,0.234-0.979c0.241-0.995,0.47-1.994,0.688-3.001c0.065-0.304,0.127-0.608,0.19-0.913
	c0.233-1.121,0.45-2.248,0.654-3.383c0.028-0.161,0.059-0.321,0.087-0.482c2.21-12.605,2.616-25.918,1.215-38.634
	c-0.013-0.124-0.028-0.246-0.042-0.37c-0.135-1.189-0.285-2.373-0.451-3.551c-0.038-0.271-0.074-0.541-0.115-0.811
	c-0.044-0.3-0.081-0.605-0.127-0.905c26.756,7.135,47.97,16.338,63.183,27.422c12.669,9.232,20.796,19.634,24.339,31.041
	c-7.445,5.819-27.925,20.255-65.097,35.64c-4.306,1.782-6.353,6.719-4.571,11.025c1.346,3.252,4.489,5.215,7.802,5.215
	c1.076,0,2.168-0.207,3.224-0.644c29.409-12.171,49.051-23.895,60.558-31.77c-1.207,25.573-10.284,47.573-27.075,65.695
	c-86.684,15.885-159.844,16.953-220.145,10.35c56.735-6.12,108.186-16.818,153.583-31.969c4.421-1.475,6.809-6.257,5.334-10.677
	c-1.476-4.421-6.257-6.807-10.678-5.334c-29.2,9.745-61.016,17.604-95.228,23.544c-29.966-2.907-108.644-13.608-129.61-29.894
	c-3.683-2.86-8.983-2.194-11.842,1.488c-2.859,3.68-2.193,8.982,1.488,11.841c12.258,9.522,38.479,17.917,77.967,24.965
	c-19.424,1.946-39.48,3.352-60.132,4.219c-30.454-7.223-56.18-16.199-77.317-25.282c-4.281-1.84-9.246,0.14-11.086,4.422
	c-1.84,4.283,0.14,9.246,4.422,11.086c21.915,9.416,48.587,18.728,80.151,26.208c0.62,0.222,1.269,0.379,1.943,0.449
	c39.81,9.28,87.299,15.631,142.784,15.631c37.043,0,77.652-2.835,121.889-9.506c-8.769,5.469-18.57,10.349-29.378,14.644
	c-0.062,0.024-0.128,0.035-0.19,0.059c-8.756,3.469-18.262,6.586-28.257,9.264c-0.126,0.034-0.245,0.081-0.368,0.12
	c-0.646,0.172-1.309,0.335-1.961,0.504c-0.102,0.022-0.205,0.034-0.307,0.06c-22.925,5.925-49.464,9.924-78.877,11.89
	c-0.03,0.002-0.059,0.011-0.089,0.013c-14.554,0.969-29.883,1.461-45.996,1.461C167.305,351.34,102.061,336.632,62.083,307.624z
	 M358.344,381.29c-15.355,18.506-39.411,31.836-71.598,39.696c0.408-13.699,3.494-38.772,19.456-54.487
	c0.718-0.052,1.419-0.116,2.135-0.17c1.914-0.145,3.825-0.293,5.714-0.455c1.223-0.105,2.433-0.219,3.646-0.332
	c1.482-0.137,2.963-0.275,4.429-0.422c1.321-0.133,2.632-0.272,3.941-0.414c1.328-0.144,2.65-0.29,3.964-0.443
	c1.373-0.159,2.74-0.322,4.099-0.491c1.191-0.147,2.371-0.302,3.55-0.457c1.446-0.19,2.891-0.381,4.32-0.582
	c0.96-0.135,1.906-0.278,2.857-0.419c1.62-0.239,3.242-0.476,4.84-0.729c0.177-0.028,0.35-0.059,0.527-0.087
	c7.475-1.192,14.714-2.532,21.673-4.036C369.608,364.192,365.549,372.604,358.344,381.29z M452.475,401.659
	c-31.462-2.782-53.063-10.611-60.824-22.047c-4.723-6.959-4.682-15.837,0.146-27.07c5.024-1.417,9.91-2.952,14.663-4.572
	c0.115-0.039,0.227-0.079,0.342-0.118c1.761-0.603,3.505-1.215,5.224-1.843c0.215-0.079,0.425-0.161,0.639-0.24
	c1.392-0.514,2.79-1.025,4.151-1.555c30.715-1.653,55.783,18.502,73.036,58.431C480.645,402.913,466.932,402.937,452.475,401.659z"
	/>
<g>
</g>
<g>
</g>
<g>
</g>
<g>
</g>
<g>
</g>
<g>
</g>
<g>
</g>
<g>
</g>
<g>
</g>
<g>
</g>
<g>
</g>
<g>
</g>
<g>
</g>
<g>
</g>
<g>
</g>
</svg>
