<svg id="Layer_1" height="512" viewBox="0 0 512 512" width="512" xmlns="http://www.w3.org/2000/svg" xmlns:xlink="http://www.w3.org/1999/xlink" data-name="Layer 1"><linearGradient id="linear-gradient" gradientUnits="userSpaceOnUse" x1="130.51" x2="130.51" y1="455.01" y2="41.983"><stop offset=".322" stop-color="#a163f5"/><stop offset=".466" stop-color="#b074ee"/><stop offset=".752" stop-color="#d8a1dd"/><stop offset=".898" stop-color="#efbad3"/></linearGradient><linearGradient id="linear-gradient-2" x1="162.606" x2="162.606" xlink:href="#linear-gradient" y1="455.01" y2="41.984"/><linearGradient id="linear-gradient-3" x1="239.999" x2="239.999" xlink:href="#linear-gradient" y1="455.01" y2="41.983"/><linearGradient id="linear-gradient-4" x1="336.116" x2="336.116" xlink:href="#linear-gradient" y1="455.01" y2="41.984"/><linearGradient id="linear-gradient-5" x1="397.917" x2="397.917" xlink:href="#linear-gradient" y1="455.01" y2="41.983"/><linearGradient id="linear-gradient-6" x1="263.593" x2="263.593" xlink:href="#linear-gradient" y1="455.01" y2="41.984"/><linearGradient id="linear-gradient-7" x1="81.996" x2="81.996" xlink:href="#linear-gradient" y1="455.011" y2="41.984"/><linearGradient id="linear-gradient-8" x1="99.077" x2="99.077" xlink:href="#linear-gradient" y1="455.01" y2="41.984"/><linearGradient id="linear-gradient-9" x1="255.992" x2="255.992" xlink:href="#linear-gradient" y1="455.011" y2="41.984"/><path d="m169.47 283.725a38.96 38.96 0 1 0 -38.959 39.022 39.035 39.035 0 0 0 38.959-39.022zm-65.919 0a26.96 26.96 0 1 1 26.96 27.022 27.022 27.022 0 0 1 -26.96-27.022z" fill="url(#linear-gradient)"/><path d="m162.606 418.085a39.023 39.023 0 1 0 -38.959-39.023 39.035 39.035 0 0 0 38.959 39.023zm0-66.045a27.023 27.023 0 1 1 -26.959 27.022 27.021 27.021 0 0 1 26.959-27.022z" fill="url(#linear-gradient-2)"/><path d="m240 468.573a39.023 39.023 0 1 0 -38.959-39.022 39.036 39.036 0 0 0 38.959 39.022zm0-66.045a27.023 27.023 0 1 1 -26.959 27.023 27.022 27.022 0 0 1 26.959-27.023z" fill="url(#linear-gradient-3)"/><path d="m336.116 447.784a39.023 39.023 0 1 0 -38.959-39.023 39.035 39.035 0 0 0 38.959 39.023zm0-66.046a27.023 27.023 0 1 1 -26.959 27.023 27.021 27.021 0 0 1 26.959-27.023z" fill="url(#linear-gradient-4)"/><path d="m436.877 332.676a38.96 38.96 0 1 0 -38.96 39.022 39.036 39.036 0 0 0 38.96-39.022zm-65.919 0a26.96 26.96 0 1 1 26.959 27.024 27.021 27.021 0 0 1 -26.959-27.024z" fill="url(#linear-gradient-5)"/><path d="m311.439 315.208a47.846 47.846 0 1 0 -47.846 47.926 47.941 47.941 0 0 0 47.846-47.926zm-47.846 35.926a35.927 35.927 0 1 1 35.846-35.926 35.926 35.926 0 0 1 -35.846 35.926z" fill="url(#linear-gradient-6)"/><path d="m92.549 348.488a131.545 131.545 0 0 1 -9.549-49.75 6 6 0 0 0 -12 0 143.48 143.48 0 0 0 10.432 54.262 6 6 0 1 0 11.117-4.516z" fill="url(#linear-gradient-7)"/><path d="m97.39 381.986a6 6 0 1 0 9.771-6.966c-2.171-3.044-4.228-6.206-6.118-9.4a6 6 0 0 0 -10.328 6.109c2.062 3.487 4.307 6.937 6.675 10.257z" fill="url(#linear-gradient-8)"/><path d="m454.885 305.281a6 6 0 0 0 -5.99 6.179c1.415 50.685-14.84 94.3-47.465 126.79-36.669 36.522-92.363 56.048-145.356 50.962-52.843-5.074-101.348-26.57-136.583-60.528-36.957-35.619-56.491-81.396-56.491-132.384 0-28.709 8.838-51.294 24.885-63.594 13.527-10.368 31.467-12.945 51.876-7.454 32.968 8.871 54.86 8.33 68.9-1.7 16.444-11.747 17.925-33.678 19.358-54.886.981-14.539 2-29.572 7.9-40.145 3.974-7.121 12.075-16.595 36.444-16.652a110.652 110.652 0 0 1 14.514.971q-5.241 11.119-10.234 22.831c-9.084.566-17.082 4.152-22.381 10.163-13.161 14.937-8.119 41.02 11.239 58.145 10.289 9.1 22.768 14.189 34.613 14.189q1.266 0 2.521-.078c8.954-.557 16.518-4.064 21.876-10.144 11.282-12.8 9.681-33.433-3.535-50q3.636-16.758 6.313-33.123c28.3 12.342 54.684 32.465 74.908 57.286a203.747 203.747 0 0 1 40.128 80.643 6 6 0 1 0 11.636-2.964 215.552 215.552 0 0 0 -42.461-85.258c-22.105-27.128-51.194-48.985-82.327-61.957q1.467-10.317 2.539-20.429c11.285-3.665 19.066-9.767 23.162-18.187 4.474-9.2 4-20.671-1.34-32.3-6.475-14.107-.533-17.51 3.805-19.995a6.242 6.242 0 0 0 -4.2-11.562c-8.126 1.459-25.027 6.754-33.012 11.732-14.045 8.753-21.872 19.749-23.265 32.679-.91 8.459 1.02 17.639 5.736 27.342-3.46 6.311-6.877 12.885-10.24 19.658a129.776 129.776 0 0 0 -20.021-1.641c-51.7.121-54.244 37.752-56.285 67.988-1.3 19.275-2.531 37.48-14.359 45.93-10.747 7.675-29.981 7.636-58.812-.12-24.151-6.5-45.693-3.209-62.293 9.517-19.081 14.622-29.588 40.589-29.588 73.115a193.679 193.679 0 0 0 16.176 78.351 196.525 196.525 0 0 0 43.987 62.67c37.179 35.831 88.234 58.5 143.765 63.834q8.885.853 17.833.848c50.852 0 102.107-20.363 137.136-55.253 24.9-24.8 52.947-67.994 50.991-135.661a6 6 0 0 0 -6.003-5.808zm-194.242-128.688c-3.063-8.614-2.413-17.113 2.62-22.824a17.8 17.8 0 0 1 7.927-4.953c-3.56 8.827-7.263 18.621-10.547 27.777zm54.862 23.42a17.012 17.012 0 0 1 -6.284 4.449c1.069-3.668 2.077-7.233 2.961-10.485q2.656-9.773 5-19.452c4.258 9.509 3.886 19.175-1.677 25.488zm10.967-168a71.079 71.079 0 0 1 12.647-5.543c-1.17 5.786 0 12.554 3.508 20.191 2.208 4.811 5.333 14.071 1.454 22.046-2.892 5.949-9.21 10.254-18.775 12.817l-11.224-3.524c-10.206-19.724-6.237-34.376 12.39-45.986zm-14.594 57.869 7.755 2.438a640.432 640.432 0 0 1 -19.033 98.51c-1.247 4.586-2.744 9.808-4.316 15.065-7.773-.989-15.985-4.844-22.836-10.9a49.992 49.992 0 0 1 -4.82-4.891c.958-2.823 1.93-5.644 2.919-8.42 11.765-33.084 25.672-64.725 40.331-91.802z" fill="url(#linear-gradient-9)"/></svg>